<mxfile host="Electron" agent="Mozilla/5.0 (Windows NT 10.0; Win64; x64) AppleWebKit/537.36 (KHTML, like Gecko) draw.io/27.0.9 Chrome/134.0.6998.205 Electron/35.4.0 Safari/537.36" version="27.0.9">
  <diagram name="페이지-1" id="WGSxOdOskkmz9LU9HtEP">
    <mxGraphModel dx="1426" dy="849" grid="1" gridSize="10" guides="1" tooltips="1" connect="1" arrows="1" fold="1" page="1" pageScale="1" pageWidth="827" pageHeight="1169" math="0" shadow="0">
      <root>
        <mxCell id="0" />
        <mxCell id="1" parent="0" />
        <mxCell id="5PLPJtpDU1oJyjAWQgFz-2" value="호텔 서비스 프로그램" style="rounded=0;whiteSpace=wrap;html=1;fontSize=16;fontStyle=1" parent="1" vertex="1">
          <mxGeometry x="517.5" y="40" width="235" height="50" as="geometry" />
        </mxCell>
        <mxCell id="5PLPJtpDU1oJyjAWQgFz-3" value="고객" style="text;html=1;align=center;verticalAlign=middle;whiteSpace=wrap;rounded=0;strokeColor=default;" parent="1" vertex="1">
          <mxGeometry x="80" y="140" width="60" height="30" as="geometry" />
        </mxCell>
        <mxCell id="5PLPJtpDU1oJyjAWQgFz-5" value="직원" style="text;html=1;align=center;verticalAlign=middle;whiteSpace=wrap;rounded=0;strokeColor=#007FFF;" parent="1" vertex="1">
          <mxGeometry x="345" y="140" width="50" height="30" as="geometry" />
        </mxCell>
        <mxCell id="5PLPJtpDU1oJyjAWQgFz-6" value="비회원" style="text;html=1;align=center;verticalAlign=middle;whiteSpace=wrap;rounded=0;strokeColor=#FFFF66;" parent="1" vertex="1">
          <mxGeometry x="595" y="140" width="70" height="30" as="geometry" />
        </mxCell>
        <mxCell id="5PLPJtpDU1oJyjAWQgFz-7" value="관리자" style="text;html=1;align=center;verticalAlign=middle;whiteSpace=wrap;rounded=0;strokeColor=#FF0000;" parent="1" vertex="1">
          <mxGeometry x="860" y="140" width="50" height="30" as="geometry" />
        </mxCell>
        <mxCell id="5PLPJtpDU1oJyjAWQgFz-10" value="인증 서비스(회원가입)" style="text;html=1;align=center;verticalAlign=middle;whiteSpace=wrap;rounded=0;strokeColor=#2D7600;fillColor=#60a917;fontColor=#ffffff;fontStyle=1" parent="1" vertex="1">
          <mxGeometry x="45" y="200" width="130" height="30" as="geometry" />
        </mxCell>
        <mxCell id="5PLPJtpDU1oJyjAWQgFz-24" style="edgeStyle=orthogonalEdgeStyle;rounded=0;orthogonalLoop=1;jettySize=auto;html=1;exitX=0.5;exitY=1;exitDx=0;exitDy=0;entryX=0.5;entryY=0;entryDx=0;entryDy=0;" parent="1" source="5PLPJtpDU1oJyjAWQgFz-11" edge="1">
          <mxGeometry relative="1" as="geometry">
            <mxPoint x="110" y="639.9999999999998" as="targetPoint" />
          </mxGeometry>
        </mxCell>
        <mxCell id="5PLPJtpDU1oJyjAWQgFz-11" value="객실 정보 등록 서비스" style="text;html=1;align=center;verticalAlign=middle;whiteSpace=wrap;rounded=0;strokeColor=#BD7000;fillColor=#f0a30a;fontColor=#FFFFFF;fontStyle=1" parent="1" vertex="1">
          <mxGeometry x="40" y="560" width="140" height="40" as="geometry" />
        </mxCell>
        <mxCell id="5PLPJtpDU1oJyjAWQgFz-13" value="인증 서비스(회원가입)" style="text;html=1;align=center;verticalAlign=middle;whiteSpace=wrap;rounded=0;strokeColor=#2D7600;fillColor=#60a917;fontColor=#ffffff;fontStyle=1" parent="1" vertex="1">
          <mxGeometry x="305" y="200" width="130" height="30" as="geometry" />
        </mxCell>
        <mxCell id="5PLPJtpDU1oJyjAWQgFz-16" value="인증 서비스(회원가입)" style="text;html=1;align=center;verticalAlign=middle;whiteSpace=wrap;rounded=0;strokeColor=#2D7600;fillColor=#60a917;fontColor=#ffffff;fontStyle=1" parent="1" vertex="1">
          <mxGeometry x="565" y="200" width="130" height="30" as="geometry" />
        </mxCell>
        <mxCell id="5PLPJtpDU1oJyjAWQgFz-21" value="인증 서비스(회원가입)" style="text;html=1;align=center;verticalAlign=middle;whiteSpace=wrap;rounded=0;strokeColor=#2D7600;fillColor=#60a917;fontColor=#ffffff;fontStyle=1" parent="1" vertex="1">
          <mxGeometry x="820" y="200" width="130" height="30" as="geometry" />
        </mxCell>
        <mxCell id="5PLPJtpDU1oJyjAWQgFz-25" value="회원가입 X(Create)&lt;br&gt;나의 정보 조회 가능(Read)&lt;br&gt;나의 정보 수정 가능(Update)&lt;br&gt;나의 정보 삭제 가능(Delete)&lt;br&gt;&lt;br&gt;로그인 &amp;amp; 로그아웃&lt;br&gt;(Process)&lt;br&gt;(사용자 확인 &amp;amp; 로그 기록 및 저장)" style="text;html=1;align=center;verticalAlign=middle;whiteSpace=wrap;rounded=0;strokeColor=default;" parent="1" vertex="1">
          <mxGeometry x="18.75" y="253" width="182.5" height="140" as="geometry" />
        </mxCell>
        <mxCell id="5PLPJtpDU1oJyjAWQgFz-30" value="회원가입 가능(Create)" style="text;html=1;align=center;verticalAlign=middle;whiteSpace=wrap;rounded=0;strokeColor=default;" parent="1" vertex="1">
          <mxGeometry x="547.5" y="269.5" width="165" height="107" as="geometry" />
        </mxCell>
        <mxCell id="5PLPJtpDU1oJyjAWQgFz-31" value="회원가입 X(Create)&lt;br&gt;나의 정보 조회 가능(Read)&lt;br&gt;나의 정보 수정 가능(Update)&lt;br&gt;나의 정보 삭제 가능(Delete)&lt;br&gt;&lt;br&gt;로그인 &amp;amp; 로그아웃&lt;br&gt;(Process)&lt;br&gt;(사용자 확인 &amp;amp; 로그 기록 및 저장)" style="text;html=1;align=center;verticalAlign=middle;whiteSpace=wrap;rounded=0;strokeColor=default;" parent="1" vertex="1">
          <mxGeometry x="278.75" y="253" width="182.5" height="140" as="geometry" />
        </mxCell>
        <mxCell id="5PLPJtpDU1oJyjAWQgFz-36" value="회원가입 X (Create)&lt;br&gt;회원 정보 조회 O (Read)&lt;br&gt;회원 정보 수정 O (Update)&lt;br&gt;회원 정보 삭제 O (Delete)&lt;br&gt;&lt;br&gt;직원 관리&amp;nbsp;&lt;div&gt;직원 정보 등록 O (&lt;span style=&quot;background-color: transparent; color: light-dark(rgb(0, 0, 0), rgb(255, 255, 255));&quot;&gt;Create&lt;/span&gt;&lt;span style=&quot;background-color: transparent; color: light-dark(rgb(0, 0, 0), rgb(255, 255, 255));&quot;&gt;)&lt;/span&gt;&lt;/div&gt;&lt;div&gt;직원 정보 조회 O (Read)&lt;br&gt;직원 정보 수정 O (Update)&lt;br&gt;직원 정보 삭제 O (Delete)&lt;br&gt;&lt;/div&gt;" style="text;html=1;align=center;verticalAlign=middle;whiteSpace=wrap;rounded=0;strokeColor=default;" parent="1" vertex="1">
          <mxGeometry x="793.75" y="253" width="182.5" height="147" as="geometry" />
        </mxCell>
        <mxCell id="_WWPGWpsmgN-KW0Gxb0J-21" style="edgeStyle=orthogonalEdgeStyle;rounded=0;orthogonalLoop=1;jettySize=auto;html=1;exitX=0.5;exitY=1;exitDx=0;exitDy=0;entryX=0.5;entryY=0;entryDx=0;entryDy=0;" parent="1" source="5PLPJtpDU1oJyjAWQgFz-50" target="_WWPGWpsmgN-KW0Gxb0J-7" edge="1">
          <mxGeometry relative="1" as="geometry" />
        </mxCell>
        <mxCell id="5PLPJtpDU1oJyjAWQgFz-50" value="&lt;div style=&quot;text-align: center;&quot;&gt;&lt;span style=&quot;background-color: transparent; color: light-dark(rgb(0, 0, 0), rgb(255, 255, 255));&quot;&gt;- 회원 -&lt;/span&gt;&lt;/div&gt;객실등록 X (Create)&lt;br&gt;객실조회 O (Read)&lt;br&gt;객실수정 X (Update)&lt;br&gt;객실삭제 X (Delete)" style="text;html=1;align=left;verticalAlign=middle;whiteSpace=wrap;rounded=0;strokeColor=default;" parent="1" vertex="1">
          <mxGeometry x="50" y="640" width="120" height="100" as="geometry" />
        </mxCell>
        <mxCell id="_WWPGWpsmgN-KW0Gxb0J-12" style="edgeStyle=orthogonalEdgeStyle;rounded=0;orthogonalLoop=1;jettySize=auto;html=1;exitX=0.5;exitY=1;exitDx=0;exitDy=0;entryX=0.5;entryY=0;entryDx=0;entryDy=0;" parent="1" source="_WWPGWpsmgN-KW0Gxb0J-5" target="5PLPJtpDU1oJyjAWQgFz-11" edge="1">
          <mxGeometry relative="1" as="geometry" />
        </mxCell>
        <mxCell id="_WWPGWpsmgN-KW0Gxb0J-5" value="서비스" style="text;html=1;align=center;verticalAlign=middle;whiteSpace=wrap;rounded=0;strokeColor=#BD7000;fillColor=#f0a30a;fontColor=#FFFFFF;fontStyle=1;fontSize=17;" parent="1" vertex="1">
          <mxGeometry x="40" y="440" width="140" height="40" as="geometry" />
        </mxCell>
        <mxCell id="_WWPGWpsmgN-KW0Gxb0J-6" style="edgeStyle=orthogonalEdgeStyle;rounded=0;orthogonalLoop=1;jettySize=auto;html=1;exitX=0.5;exitY=1;exitDx=0;exitDy=0;entryX=0.5;entryY=0;entryDx=0;entryDy=0;" parent="1" source="_WWPGWpsmgN-KW0Gxb0J-7" edge="1">
          <mxGeometry relative="1" as="geometry">
            <mxPoint x="110" y="859.9999999999998" as="targetPoint" />
          </mxGeometry>
        </mxCell>
        <mxCell id="_WWPGWpsmgN-KW0Gxb0J-7" value="주차 서비스" style="text;html=1;align=center;verticalAlign=middle;whiteSpace=wrap;rounded=0;strokeColor=#BD7000;fillColor=#f0a30a;fontColor=#FFFFFF;fontStyle=1" parent="1" vertex="1">
          <mxGeometry x="40" y="780" width="140" height="40" as="geometry" />
        </mxCell>
        <mxCell id="_WWPGWpsmgN-KW0Gxb0J-22" style="edgeStyle=orthogonalEdgeStyle;rounded=0;orthogonalLoop=1;jettySize=auto;html=1;exitX=0.5;exitY=1;exitDx=0;exitDy=0;entryX=0.5;entryY=0;entryDx=0;entryDy=0;" parent="1" source="_WWPGWpsmgN-KW0Gxb0J-8" target="_WWPGWpsmgN-KW0Gxb0J-17" edge="1">
          <mxGeometry relative="1" as="geometry" />
        </mxCell>
        <mxCell id="_WWPGWpsmgN-KW0Gxb0J-8" value="&lt;div style=&quot;text-align: center;&quot;&gt;&lt;span style=&quot;background-color: transparent; color: light-dark(rgb(0, 0, 0), rgb(255, 255, 255));&quot;&gt;- 회원 -&lt;/span&gt;&lt;/div&gt;객실등록 X (Create)&lt;br&gt;객실조회 O (Read)&lt;br&gt;객실수정 X (Update)&lt;br&gt;객실삭제 X (Delete)" style="text;html=1;align=left;verticalAlign=middle;whiteSpace=wrap;rounded=0;strokeColor=default;" parent="1" vertex="1">
          <mxGeometry x="50" y="860" width="120" height="100" as="geometry" />
        </mxCell>
        <mxCell id="_WWPGWpsmgN-KW0Gxb0J-16" style="edgeStyle=orthogonalEdgeStyle;rounded=0;orthogonalLoop=1;jettySize=auto;html=1;exitX=0.5;exitY=1;exitDx=0;exitDy=0;entryX=0.5;entryY=0;entryDx=0;entryDy=0;" parent="1" source="_WWPGWpsmgN-KW0Gxb0J-17" edge="1">
          <mxGeometry relative="1" as="geometry">
            <mxPoint x="110" y="1079.9999999999998" as="targetPoint" />
          </mxGeometry>
        </mxCell>
        <mxCell id="_WWPGWpsmgN-KW0Gxb0J-17" value="식사 서비스" style="text;html=1;align=center;verticalAlign=middle;whiteSpace=wrap;rounded=0;strokeColor=#BD7000;fillColor=#f0a30a;fontColor=#FFFFFF;fontStyle=1" parent="1" vertex="1">
          <mxGeometry x="40" y="1000" width="140" height="40" as="geometry" />
        </mxCell>
        <mxCell id="_WWPGWpsmgN-KW0Gxb0J-18" value="&lt;div style=&quot;text-align: center;&quot;&gt;&lt;span style=&quot;background-color: transparent; color: light-dark(rgb(0, 0, 0), rgb(255, 255, 255));&quot;&gt;- 회원 -&lt;/span&gt;&lt;/div&gt;" style="text;html=1;align=left;verticalAlign=middle;whiteSpace=wrap;rounded=0;strokeColor=default;" parent="1" vertex="1">
          <mxGeometry x="50" y="1080" width="120" height="100" as="geometry" />
        </mxCell>
        <mxCell id="XW8K8bWUHfcmjim6NbhD-4" value="객실 예약 서비스" style="text;html=1;align=center;verticalAlign=middle;whiteSpace=wrap;rounded=0;strokeColor=#BD7000;fillColor=#f0a30a;fontColor=#FFFFFF;fontStyle=1" vertex="1" parent="1">
          <mxGeometry x="815" y="560" width="140" height="40" as="geometry" />
        </mxCell>
        <mxCell id="XW8K8bWUHfcmjim6NbhD-31" style="edgeStyle=orthogonalEdgeStyle;rounded=0;orthogonalLoop=1;jettySize=auto;html=1;exitX=0.5;exitY=1;exitDx=0;exitDy=0;entryX=0.5;entryY=0;entryDx=0;entryDy=0;" edge="1" parent="1" source="XW8K8bWUHfcmjim6NbhD-32" target="XW8K8bWUHfcmjim6NbhD-34">
          <mxGeometry relative="1" as="geometry" />
        </mxCell>
        <mxCell id="XW8K8bWUHfcmjim6NbhD-32" value="&lt;div style=&quot;text-align: center;&quot;&gt;&lt;span style=&quot;background-color: transparent; color: light-dark(rgb(0, 0, 0), rgb(255, 255, 255));&quot;&gt;- 관리자-&lt;/span&gt;&lt;/div&gt;객실 예약 등록 O (Create)&lt;br&gt;객실 예약 조회 O (Read)&lt;br&gt;객실 예약 변경 O (Update)&lt;br&gt;객실 예약 취소 O(Delete)" style="text;html=1;align=left;verticalAlign=middle;whiteSpace=wrap;rounded=0;strokeColor=default;" vertex="1" parent="1">
          <mxGeometry x="822.5" y="640" width="137.5" height="100" as="geometry" />
        </mxCell>
        <mxCell id="XW8K8bWUHfcmjim6NbhD-33" style="edgeStyle=orthogonalEdgeStyle;rounded=0;orthogonalLoop=1;jettySize=auto;html=1;exitX=0.5;exitY=1;exitDx=0;exitDy=0;entryX=0.5;entryY=0;entryDx=0;entryDy=0;" edge="1" parent="1" source="XW8K8bWUHfcmjim6NbhD-34">
          <mxGeometry relative="1" as="geometry">
            <mxPoint x="885" y="859.9999999999998" as="targetPoint" />
          </mxGeometry>
        </mxCell>
        <mxCell id="XW8K8bWUHfcmjim6NbhD-34" value="주차 등록 서비스" style="text;html=1;align=center;verticalAlign=middle;whiteSpace=wrap;rounded=0;strokeColor=#BD7000;fillColor=#f0a30a;fontColor=#FFFFFF;fontStyle=1" vertex="1" parent="1">
          <mxGeometry x="820" y="780" width="140" height="40" as="geometry" />
        </mxCell>
        <mxCell id="XW8K8bWUHfcmjim6NbhD-35" style="edgeStyle=orthogonalEdgeStyle;rounded=0;orthogonalLoop=1;jettySize=auto;html=1;exitX=0.5;exitY=1;exitDx=0;exitDy=0;entryX=0.5;entryY=0;entryDx=0;entryDy=0;" edge="1" parent="1" source="XW8K8bWUHfcmjim6NbhD-36" target="XW8K8bWUHfcmjim6NbhD-38">
          <mxGeometry relative="1" as="geometry" />
        </mxCell>
        <mxCell id="XW8K8bWUHfcmjim6NbhD-36" value="&lt;div style=&quot;text-align: center;&quot;&gt;&lt;span style=&quot;background-color: transparent; color: light-dark(rgb(0, 0, 0), rgb(255, 255, 255));&quot;&gt;- 관리자 -&lt;/span&gt;&lt;/div&gt;주차등록 O (Create)&lt;br&gt;주차조회 O (Read)&lt;br&gt;주차변경 O (Update)&lt;br&gt;주차취소 O (Delete)" style="text;html=1;align=left;verticalAlign=middle;whiteSpace=wrap;rounded=0;strokeColor=default;" vertex="1" parent="1">
          <mxGeometry x="825" y="860" width="120" height="100" as="geometry" />
        </mxCell>
        <mxCell id="XW8K8bWUHfcmjim6NbhD-37" style="edgeStyle=orthogonalEdgeStyle;rounded=0;orthogonalLoop=1;jettySize=auto;html=1;exitX=0.5;exitY=1;exitDx=0;exitDy=0;entryX=0.5;entryY=0;entryDx=0;entryDy=0;" edge="1" parent="1" source="XW8K8bWUHfcmjim6NbhD-38">
          <mxGeometry relative="1" as="geometry">
            <mxPoint x="885" y="1079.9999999999998" as="targetPoint" />
          </mxGeometry>
        </mxCell>
        <mxCell id="XW8K8bWUHfcmjim6NbhD-38" value="식사 예약 서비스" style="text;html=1;align=center;verticalAlign=middle;whiteSpace=wrap;rounded=0;strokeColor=#BD7000;fillColor=#f0a30a;fontColor=#FFFFFF;fontStyle=1" vertex="1" parent="1">
          <mxGeometry x="815" y="1000" width="140" height="40" as="geometry" />
        </mxCell>
        <mxCell id="XW8K8bWUHfcmjim6NbhD-40" value="&lt;div style=&quot;text-align: center;&quot;&gt;&lt;span style=&quot;background-color: transparent; color: light-dark(rgb(0, 0, 0), rgb(255, 255, 255));&quot;&gt;- 관리자-&lt;/span&gt;&lt;/div&gt;&lt;div style=&quot;text-align: center;&quot;&gt;식사 예약 등록 O&amp;nbsp;&lt;span style=&quot;background-color: transparent; color: light-dark(rgb(0, 0, 0), rgb(255, 255, 255)); text-align: left;&quot;&gt;&amp;nbsp;&lt;/span&gt;&lt;span style=&quot;background-color: transparent; color: light-dark(rgb(0, 0, 0), rgb(255, 255, 255)); text-align: left;&quot;&gt;(Create)&lt;/span&gt;&lt;/div&gt;식사 예약 조회 O (Read)&lt;div&gt;식사 예약 변경 O (Update)&lt;br&gt;식사 예약취소 O (Delete)&lt;/div&gt;" style="text;html=1;align=left;verticalAlign=middle;whiteSpace=wrap;rounded=0;strokeColor=default;" vertex="1" parent="1">
          <mxGeometry x="825" y="1080" width="145" height="100" as="geometry" />
        </mxCell>
      </root>
    </mxGraphModel>
  </diagram>
</mxfile>
